<?xml version="1.0" encoding="UTF-8" standalone="no"?>
<?xml-stylesheet type="text/css" href="/styles/signup_image.css" ?><!-- Created with Inkscape (http://www.inkscape.org/) -->

<svg
   xmlns:dc="http://purl.org/dc/elements/1.1/"
   xmlns:cc="http://creativecommons.org/ns#"
   xmlns:rdf="http://www.w3.org/1999/02/22-rdf-syntax-ns#"
   xmlns:svg="http://www.w3.org/2000/svg"
   xmlns="http://www.w3.org/2000/svg"
   xmlns:xlink="http://www.w3.org/1999/xlink"
   xmlns:sodipodi="http://sodipodi.sourceforge.net/DTD/sodipodi-0.dtd"
   xmlns:inkscape="http://www.inkscape.org/namespaces/inkscape"
   width="2000"
   height="800"
   viewBox="0 0 2000 800.00001"
   id="svg2"
   version="1.1"
   inkscape:version="0.91 r13725"
   sodipodi:docname="signup_desk.svg"
   preserveAspectRatio="xMinYMin slice">
  <defs
     id="defs4">
    <linearGradient
       id="linearGradient4399"
       inkscape:collect="always">
      <stop
         id="stop4401"
         offset="0"
         style="stop-color:#1e1e1e;stop-opacity:0.29408235" />
      <stop
         id="stop4403"
         offset="1"
         style="stop-color:#1e1e1e;stop-opacity:0;" />
    </linearGradient>
    <linearGradient
       inkscape:collect="always"
       id="linearGradient4157">
      <stop
         style="stop-color:#1e1e1e;stop-opacity:1;"
         offset="0"
         id="stop4159" />
      <stop
         style="stop-color:#1e1e1e;stop-opacity:0;"
         offset="1"
         id="stop4161" />
    </linearGradient>
    <linearGradient
       inkscape:collect="always"
       xlink:href="#linearGradient4157"
       id="linearGradient4163"
       x1="652.85718"
       y1="938.79071"
       x2="652.85718"
       y2="961.64789"
       gradientUnits="userSpaceOnUse"
       gradientTransform="translate(-2.1428571,10.010755)" />
    <clipPath
       clipPathUnits="userSpaceOnUse"
       id="clipPath4198">
      <rect
         style="opacity:1;fill:#ac9d93;fill-opacity:1;stroke:none"
         id="rect4200"
         width="70.710678"
         height="65.154839"
         x="363.65491"
         y="894.77838" />
    </clipPath>
    <clipPath
       clipPathUnits="userSpaceOnUse"
       id="clipPath4234">
      <rect
         style="opacity:1;fill:#e9c6af;fill-opacity:1;stroke:none"
         id="rect4236"
         width="85.35714"
         height="10"
         x="357.14285"
         y="865.93359" />
    </clipPath>
    <clipPath
       clipPathUnits="userSpaceOnUse"
       id="clipPath4242">
      <rect
         style="opacity:1;fill:#deaa87;fill-opacity:1;stroke:none"
         id="rect4244"
         width="57.857143"
         height="7.5"
         x="370.17856"
         y="954.50507" />
    </clipPath>
    <clipPath
       clipPathUnits="userSpaceOnUse"
       id="clipPath4258">
      <rect
         ry="7.8571253"
         y="727.93359"
         x="487.85715"
         height="194.28563"
         width="327.85718"
         id="rect4260"
         style="fill:#ffffff;fill-opacity:1;stroke:none" />
    </clipPath>
    <linearGradient
       inkscape:collect="always"
       xlink:href="#linearGradient4399"
       id="linearGradient4397"
       x1="1304.2856"
       y1="-537.36224"
       x2="1304.2856"
       y2="-558.3006"
       gradientUnits="userSpaceOnUse"
       gradientTransform="matrix(1,0,0,5.1140795,0,2231.3212)" />
    <clipPath
       clipPathUnits="userSpaceOnUse"
       id="clipPath4233">
      <path
         sodipodi:nodetypes="csscssc"
         inkscape:connector-curvature="0"
         id="path4235"
         d="m 680.03941,1485.7908 c 0,0 41.42857,-94.2857 121.42857,-121.4286 80,-27.1429 184.28571,41.4286 204.28572,61.4286 20,20 50,50 50,50 0,0 -50,-10 -98.57144,34.2857 -30.24768,27.5788 -120,52.8571 -177.14285,31.4286 -57.14286,-21.4286 -100,-55.7143 -100,-55.7143 z"
         style="fill:#415907;fill-opacity:1;fill-rule:evenodd;stroke:none;stroke-width:1px;stroke-linecap:butt;stroke-linejoin:miter;stroke-opacity:1" />
    </clipPath>
    <clipPath
       clipPathUnits="userSpaceOnUse"
       id="clipPath4233-3">
      <path
         sodipodi:nodetypes="csscssc"
         inkscape:connector-curvature="0"
         id="path4235-6"
         d="m 680.03941,1485.7908 c 0,0 41.42857,-94.2857 121.42857,-121.4286 80,-27.1429 184.28571,41.4286 204.28572,61.4286 20,20 50,50 50,50 0,0 -50,-10 -98.57144,34.2857 -30.24768,27.5788 -120,52.8571 -177.14285,31.4286 -57.14286,-21.4286 -100,-55.7143 -100,-55.7143 z"
         style="fill:#415907;fill-opacity:1;fill-rule:evenodd;stroke:none;stroke-width:1px;stroke-linecap:butt;stroke-linejoin:miter;stroke-opacity:1" />
    </clipPath>
    <clipPath
       clipPathUnits="userSpaceOnUse"
       id="clipPath4286">
      <path
         sodipodi:nodetypes="csscssc"
         inkscape:connector-curvature="0"
         id="path4288"
         d="m 680.03941,1485.7908 c 0,0 41.42857,-94.2857 121.42857,-121.4286 80,-27.1429 184.28571,41.4286 204.28572,61.4286 20,20 50,50 50,50 0,0 -50,-10 -98.57144,34.2857 -30.24768,27.5788 -120,52.8571 -177.14285,31.4286 -57.14286,-21.4286 -100,-55.7143 -100,-55.7143 z"
         style="fill:#415907;fill-opacity:1;fill-rule:evenodd;stroke:none;stroke-width:1px;stroke-linecap:butt;stroke-linejoin:miter;stroke-opacity:1" />
    </clipPath>
    <clipPath
       clipPathUnits="userSpaceOnUse"
       id="clipPath4290">
      <path
         sodipodi:nodetypes="csscssc"
         inkscape:connector-curvature="0"
         id="path4292"
         d="m 680.03941,1485.7908 c 0,0 41.42857,-94.2857 121.42857,-121.4286 80,-27.1429 184.28571,41.4286 204.28572,61.4286 20,20 50,50 50,50 0,0 -50,-10 -98.57144,34.2857 -30.24768,27.5788 -120,52.8571 -177.14285,31.4286 -57.14286,-21.4286 -100,-55.7143 -100,-55.7143 z"
         style="fill:#415907;fill-opacity:1;fill-rule:evenodd;stroke:none;stroke-width:1px;stroke-linecap:butt;stroke-linejoin:miter;stroke-opacity:1" />
    </clipPath>
    <clipPath
       clipPathUnits="userSpaceOnUse"
       id="clipPath4294">
      <path
         sodipodi:nodetypes="csscssc"
         inkscape:connector-curvature="0"
         id="path4296"
         d="m 680.03941,1485.7908 c 0,0 41.42857,-94.2857 121.42857,-121.4286 80,-27.1429 184.28571,41.4286 204.28572,61.4286 20,20 50,50 50,50 0,0 -50,-10 -98.57144,34.2857 -30.24768,27.5788 -120,52.8571 -177.14285,31.4286 -57.14286,-21.4286 -100,-55.7143 -100,-55.7143 z"
         style="fill:#415907;fill-opacity:1;fill-rule:evenodd;stroke:none;stroke-width:1px;stroke-linecap:butt;stroke-linejoin:miter;stroke-opacity:1" />
    </clipPath>
    <linearGradient
       inkscape:collect="always"
       xlink:href="#linearGradient4157"
       id="linearGradient4818"
       x1="359.02002"
       y1="981.10846"
       x2="359.02002"
       y2="1124.1948"
       gradientUnits="userSpaceOnUse"
       gradientTransform="matrix(1,0,0,0.84594661,0,201.6915)" />
  </defs>
  <sodipodi:namedview
     id="base"
     pagecolor="#202d3d"
     bordercolor="#666666"
     borderopacity="1.0"
     inkscape:pageopacity="1"
     inkscape:pageshadow="2"
     inkscape:zoom="0.49497475"
     inkscape:cx="644.72944"
     inkscape:cy="243.92218"
     inkscape:document-units="px"
     inkscape:current-layer="layer1"
     showgrid="false"
     units="px"
     inkscape:window-width="1920"
     inkscape:window-height="1053"
     inkscape:window-x="0"
     inkscape:window-y="0"
     inkscape:window-maximized="1" />
  <metadata
     id="metadata7">
    <rdf:RDF>
      <cc:Work
         rdf:about="">
        <dc:format>image/svg+xml</dc:format>
        <dc:type
           rdf:resource="http://purl.org/dc/dcmitype/StillImage" />
        <dc:title />
      </cc:Work>
    </rdf:RDF>
  </metadata>
  <g
     inkscape:label="Layer 1"
     inkscape:groupmode="layer"
     id="layer1"
     transform="translate(0,-252.36216)">
    <g
       id="plant"
       transform="matrix(1.3510885,0,0,1.3510885,-213.52522,-619.84604)">
      <path
         sodipodi:nodetypes="cscsc"
         inkscape:connector-curvature="0"
         id="path4418"
         d="m 1131.3079,1112.5504 c 0,0 -18.0229,56.9357 -69.9887,84.2951 -54.2818,28.5788 -87.14151,10.0117 -87.14151,10.0117 0,0 6.42246,-42.7186 48.56251,-67.1493 57.1325,-33.1226 108.5677,-27.1575 108.5677,-27.1575 z"
         style="fill:#9dd513;fill-opacity:1;fill-rule:evenodd;stroke:none;stroke-width:1px;stroke-linecap:butt;stroke-linejoin:miter;stroke-opacity:1" />
      <path
         style="fill:#9dd513;fill-opacity:1;fill-rule:evenodd;stroke:none;stroke-width:1px;stroke-linecap:butt;stroke-linejoin:miter;stroke-opacity:1"
         d="m 1102.7365,1036.8243 c 0,0 -12.4518,55.3195 -48.3541,81.9023 -37.5025,27.7676 -60.20471,9.7275 -60.20471,9.7275 0,0 4.43718,-41.506 33.55111,-65.2432 39.4719,-32.1824 75.0077,-26.3866 75.0077,-26.3866 z"
         id="path4420"
         inkscape:connector-curvature="0"
         sodipodi:nodetypes="cscsc" />
      <path
         sodipodi:nodetypes="cscsc"
         inkscape:connector-curvature="0"
         id="path4422"
         d="m 1064.165,979.59831 c 0,0 -6.7168,44.00639 -26.0831,65.15289 -20.2296,22.0889 -32.4757,7.7381 -32.4757,7.7381 0,0 2.3935,-33.0178 18.0981,-51.9006 21.2919,-25.60092 40.4607,-20.99039 40.4607,-20.99039 z"
         style="fill:#9dd513;fill-opacity:1;fill-rule:evenodd;stroke:none;stroke-width:1px;stroke-linecap:butt;stroke-linejoin:miter;stroke-opacity:1" />
      <path
         sodipodi:nodetypes="cscscc"
         inkscape:connector-curvature="0"
         id="path4424"
         d="m 858.29154,1384.7112 c 0,0 104.75862,-124.4075 138.85131,-283.7776 19.79295,-92.5243 -21.42857,-158.57144 -21.42857,-158.57144 0,0 71.09482,92.02934 -3.19087,276.31494 -52.54834,130.3603 -127.71664,198.8784 -127.71664,198.8784 z"
         style="fill:#9dd513;fill-opacity:1;fill-rule:evenodd;stroke:none;stroke-width:1px;stroke-linecap:butt;stroke-linejoin:miter;stroke-opacity:1" />
      <path
         style="fill:#9dd513;fill-opacity:1;fill-rule:evenodd;stroke:none;stroke-width:1px;stroke-linecap:butt;stroke-linejoin:miter;stroke-opacity:1"
         d="m 837.02218,1131.1159 c 0,0 15.07637,56.1277 58.54635,83.0987 45.40735,28.1732 72.89487,9.8697 72.89487,9.8697 0,0 -5.37246,-42.1123 -40.62309,-66.1963 -47.79199,-32.6525 -90.81813,-26.7721 -90.81813,-26.7721 z"
         id="path4426"
         inkscape:connector-curvature="0"
         sodipodi:nodetypes="cscsc" />
      <path
         sodipodi:nodetypes="cscsc"
         inkscape:connector-curvature="0"
         id="path4428"
         d="m 897.02222,1065.3779 c 0,0 10.65225,52.8953 41.36591,78.3131 32.08259,26.5508 51.50385,9.3012 51.50385,9.3012 0,0 -3.79591,-39.6871 -28.70227,-62.384 -33.76737,-30.7721 -64.16749,-25.2303 -64.16749,-25.2303 z"
         style="fill:#9dd513;fill-opacity:1;fill-rule:evenodd;stroke:none;stroke-width:1px;stroke-linecap:butt;stroke-linejoin:miter;stroke-opacity:1" />
      <path
         style="fill:#9dd513;fill-opacity:1;fill-rule:evenodd;stroke:none;stroke-width:1px;stroke-linecap:butt;stroke-linejoin:miter;stroke-opacity:1"
         d="m 955.59354,1005.3422 c 0,0 5.57269,48.0468 21.64021,71.1349 16.78376,24.1169 26.94385,8.4485 26.94385,8.4485 0,0 -1.9858,-36.0493 -15.01528,-56.6658 -17.66512,-27.9514 -33.56878,-22.9176 -33.56878,-22.9176 z"
         id="path4430"
         inkscape:connector-curvature="0"
         sodipodi:nodetypes="cscsc" />
      <path
         sodipodi:nodetypes="cscsc"
         inkscape:connector-curvature="0"
         id="path4806"
         d="m 1097.2073,1219.3581 c 0,0 -20.5985,58.6653 -79.9904,86.8557 -62.03878,29.4469 -99.59427,10.3159 -99.59427,10.3159 0,0 7.34025,-44.0163 55.50222,-69.189 65.29685,-34.1288 124.08245,-27.9826 124.08245,-27.9826 z"
         style="fill:#9dd513;fill-opacity:1;fill-rule:evenodd;stroke:none;stroke-width:1px;stroke-linecap:butt;stroke-linejoin:miter;stroke-opacity:1" />
    </g>
    <g
       id="computer"
       transform="matrix(1.1719166,0,0,1.1719166,-6.139878,-167.25095)">
      <rect
         style="fill:#b3b3b3;fill-opacity:1;stroke:none"
         id="rect4145"
         width="131.42856"
         height="39.133434"
         x="584.28571"
         y="938.79071" />
      <rect
         ry="18.571428"
         y="719.505"
         x="480"
         height="229.28572"
         width="342.14285"
         id="rect4138"
         style="fill:#b3b3b3;fill-opacity:1;stroke:none" />
      <rect
         style="fill:#ffffff;fill-opacity:1;stroke:none"
         id="rect4140"
         width="327.85718"
         height="194.28563"
         x="487.85715"
         y="727.93359"
         ry="7.8571253" />
      <rect
         y="948.80145"
         x="584.28571"
         height="24.285721"
         width="131.42856"
         id="rect4147"
         style="opacity:0.506;fill:url(#linearGradient4163);fill-opacity:1;stroke:none" />
      <rect
         style="opacity:1;fill:#cccccc;fill-opacity:1;stroke:none"
         id="rect4254"
         width="335.35715"
         height="33.214287"
         x="483.92856"
         y="724.505"
         clip-path="url(#clipPath4258)" />
      <rect
         style="opacity:1;fill:#ffffff;fill-opacity:1;stroke:none"
         id="rect4262"
         width="319.28571"
         height="20.357143"
         x="491.42856"
         y="732.36218"
         ry="3.5714285" />
      <text
         xml:space="preserve"
         style="font-style:normal;font-variant:normal;font-weight:normal;font-stretch:normal;font-size:15px;line-height:125%;font-family:Ubuntu;-inkscape-font-specification:Ubuntu;letter-spacing:0px;word-spacing:0px;fill:#008000;fill-opacity:1;stroke:none;stroke-width:1px;stroke-linecap:butt;stroke-linejoin:miter;stroke-opacity:1"
         x="493.21426"
         y="746.86224"
         id="text4264"
         sodipodi:linespacing="125%"><tspan
           sodipodi:role="line"
           id="tspan4266"
           x="493.21426"
           y="746.86224">acmedynamitecorporation.findecks.com</tspan></text>
      <rect
         y="757.48053"
         x="487.85715"
         height="23.769489"
         width="327.85721"
         id="rect4272"
         style="fill:#1a1a1a;fill-opacity:1;stroke:none" />
      <circle
         style="opacity:1;fill:#9dd513;fill-opacity:1;stroke:none"
         id="path4274"
         cx="500.80359"
         cy="769.05859"
         r="6.5178571" />
      <rect
         style="opacity:1;fill:#b3b3b3;fill-opacity:1;stroke:none"
         id="rect4276"
         width="216.42519"
         height="10.614694"
         x="496.82816"
         y="794.10132"
         ry="5.3073468" />
      <rect
         ry="5.3073411"
         y="815.50189"
         x="496.82816"
         height="10.614682"
         width="176.97116"
         id="rect4278"
         style="opacity:1;fill:#b3b3b3;fill-opacity:1;stroke:none" />
      <rect
         style="opacity:1;fill:#b3b3b3;fill-opacity:1;stroke:none"
         id="rect4280"
         width="191.83789"
         height="10.614682"
         x="496.82816"
         y="836.90247"
         ry="5.3073411" />
      <rect
         ry="5.3073411"
         y="858.30298"
         x="496.82816"
         height="10.614682"
         width="166.10703"
         id="rect4282"
         style="opacity:1;fill:#b3b3b3;fill-opacity:1;stroke:none" />
      <rect
         style="opacity:1;fill:#b3b3b3;fill-opacity:1;stroke:none"
         id="rect4284"
         width="171.25319"
         height="10.614682"
         x="496.82816"
         y="879.70361"
         ry="5.3073411" />
      <rect
         y="976.04004"
         x="535.29333"
         height="4.1568985"
         width="229.41333"
         id="rect4363"
         style="fill:#b3b3b3;fill-opacity:1;stroke:none" />
    </g>
    <g
       id="coffee"
       transform="matrix(1.1719166,0,0,1.1719166,-250.5682,-166.06714)">
      <g
         id="g4246">
        <path
           style="opacity:1;fill:#fff6d5;fill-opacity:1;stroke:none"
           d="m 362.5,868.613 14.23558,110.89174 21.71755,0 1.92922,0 21.71755,0 14.23558,-110.89174 -35.95313,0 -1.92922,0 -35.95313,0 z"
           id="rect4184"
           inkscape:connector-curvature="0" />
        <path
           clip-path="url(#clipPath4242)"
           inkscape:connector-curvature="0"
           id="path4238"
           d="m 362.5,868.613 14.23558,110.89174 21.71755,0 1.92922,0 21.71755,0 14.23558,-110.89174 -35.95313,0 -1.92922,0 -35.95313,0 z"
           style="opacity:1;fill:#deaa87;fill-opacity:1;stroke:none" />
        <path
           inkscape:connector-curvature="0"
           id="path4196"
           d="m 362.5,868.613 14.23558,110.89174 21.71755,0 1.92922,0 21.71755,0 14.23558,-110.89174 -35.95313,0 -1.92922,0 -35.95313,0 z"
           style="opacity:1;fill:#6c5d53;fill-opacity:1;stroke:none"
           clip-path="url(#clipPath4198)"
           transform="matrix(1.0151523,0,0,1.0151523,-6.0459182,-14.051562)" />
        <circle
           style="opacity:1;fill:#9dd513;fill-opacity:1;stroke:none"
           id="path4202"
           cx="399.19641"
           cy="926.02289"
           r="20.625" />
        <path
           clip-path="url(#clipPath4234)"
           inkscape:connector-curvature="0"
           id="path4230"
           d="m 362.5,868.613 14.23558,110.89174 21.71755,0 1.92922,0 21.71755,0 14.23558,-110.89174 -35.95313,0 -1.92922,0 -35.95313,0 z"
           style="opacity:1;fill:#deaa87;fill-opacity:1;stroke:none" />
        <path
           inkscape:connector-curvature="0"
           id="path4215"
           d="m 365.97461,855.75446 -1.08594,6.47263 -3.98437,0 -0.9043,7.27765 39.46484,0 39.46289,0 -0.90429,-7.27765 -3.98242,0 -1.08594,-6.47263 -32.76758,0 -1.44727,0 -32.76562,0 z"
           style="fill:#ffffff;fill-rule:evenodd;stroke:none;stroke-width:1px;stroke-linecap:butt;stroke-linejoin:miter;stroke-opacity:1" />
      </g>
    </g>
    <g
       id="sign"
       transform="matrix(1.1719166,0,0,1.1719166,-650.13498,-414.68275)">
      <rect
         ry="7.8571301"
         y="702.3443"
         x="620.73871"
         height="128.28941"
         width="746.50275"
         id="rect4313"
         style="opacity:1;fill:#fff6d5;fill-opacity:1;stroke:none" />
      <text
         sodipodi:linespacing="125%"
         id="text4315"
         y="742.6488"
         x="634.90118"
         style="font-style:normal;font-variant:normal;font-weight:normal;font-stretch:normal;font-size:40px;line-height:125%;font-family:Ubuntu;-inkscape-font-specification:Ubuntu;letter-spacing:0px;word-spacing:0px;fill:#000000;fill-opacity:1;stroke:none;stroke-width:1px;stroke-linecap:butt;stroke-linejoin:miter;stroke-opacity:1"
         xml:space="preserve"><tspan
           y="742.6488"
           x="634.90118"
           id="tspan4317"
           sodipodi:role="line">Welcome to...</tspan></text>
      <rect
         ry="7.8571301"
         y="760.93311"
         x="625.78949"
         height="58.588848"
         width="733.37073"
         id="rect4323"
         style="opacity:1;fill:#ffffff;fill-opacity:1;stroke:none" />
      <text
         xml:space="preserve"
         style="font-style:normal;font-variant:normal;font-weight:normal;font-stretch:normal;font-size:50px;line-height:125%;font-family:Ubuntu;-inkscape-font-specification:Ubuntu;letter-spacing:0px;word-spacing:0px;fill:#233d5e;fill-opacity:1;stroke:none;stroke-width:1px;stroke-linecap:butt;stroke-linejoin:miter;stroke-opacity:1"
         x="634.90118"
         y="805.27826"
         id="text4319"
         sodipodi:linespacing="125%"><tspan
           sodipodi:role="line"
           id="tspan4321"
           x="634.90118"
           y="805.27826">ACME Dynamite Corporation|</tspan></text>
      <text
         xml:space="preserve"
         style="font-style:normal;font-variant:normal;font-weight:normal;font-stretch:normal;font-size:40px;line-height:125%;font-family:Ubuntu;-inkscape-font-specification:Ubuntu;letter-spacing:0px;word-spacing:0px;fill:#ffffff;fill-opacity:1;stroke:none;stroke-width:1px;stroke-linecap:butt;stroke-linejoin:miter;stroke-opacity:1"
         x="623.80872"
         y="645.19977"
         id="intro_hint"
         sodipodi:linespacing="125%"><tspan
           sodipodi:role="line"
           id="tspan4215"
           x="623.80872"
           y="645.19977">Let's get started!</tspan></text>
    </g>
    <g
       id="desk"
       transform="matrix(1.1719166,0,0,1.1719166,-6.139878,-220.61538)">
      <rect
         y="1026.0513"
         x="35.714283"
         height="203.18286"
         width="797.14288"
         id="rect4136"
         style="fill:#ffe6d5;fill-opacity:1;stroke:none" />
      <rect
         style="fill:#efc9a2;fill-opacity:1;stroke:none"
         id="rect4808"
         width="767.69922"
         height="218.69824"
         x="50.436096"
         y="1053.6342" />
      <rect
         y="1053.6342"
         x="50.436096"
         height="151.46487"
         width="767.69922"
         id="rect4810"
         style="opacity:0.29899998;fill:url(#linearGradient4818);fill-opacity:1;stroke:none" />
    </g>
    <g
       id="room2"
       transform="matrix(1.1719166,0,0,1.1719166,191.85002,-220.61538)">
      <g
         transform="translate(268.70057,0)"
         id="projector">
        <rect
           style="opacity:1;fill:#cccccc;fill-opacity:1;stroke:none"
           id="rect4371"
           width="30"
           height="510"
           x="1312.8572"
           y="468.07645" />
        <rect
           y="416.57831"
           x="1470.1364"
           height="510"
           width="30"
           id="rect4373"
           style="opacity:1;fill:#cccccc;fill-opacity:1;stroke:none"
           transform="matrix(0.96592583,0.25881905,-0.25881905,0.96592583,0,0)" />
        <rect
           transform="matrix(0.96592583,-0.25881905,0.25881905,0.96592583,0,0)"
           style="opacity:1;fill:#cccccc;fill-opacity:1;stroke:none"
           id="rect4375"
           width="30"
           height="510"
           x="1062.6967"
           y="1101.8083" />
        <rect
           style="opacity:1;fill:#ffffff;fill-opacity:1;stroke:none"
           id="rect4369"
           width="728.57141"
           height="478.57144"
           x="965.71423"
           y="528.07648" />
        <rect
           y="528.07648"
           x="965.71423"
           height="14.285728"
           width="728.57141"
           id="rect4387"
           style="opacity:1;fill:#808080;fill-opacity:1;stroke:none" />
        <rect
           style="opacity:1;fill:url(#linearGradient4397);fill-opacity:1;stroke:none"
           id="rect4389"
           width="728.57141"
           height="80.364037"
           x="965.71423"
           y="-622.72626"
           transform="scale(1,-1)" />
      </g>
      <text
         sodipodi:linespacing="125%"
         id="presentation_name_text"
         y="620.74976"
         x="1263.8763"
         style="font-style:normal;font-variant:normal;font-weight:normal;font-stretch:normal;font-size:50px;line-height:125%;font-family:Ubuntu;-inkscape-font-specification:Ubuntu;letter-spacing:0px;word-spacing:0px;fill:#233d5e;fill-opacity:1;stroke:none;stroke-width:1px;stroke-linecap:butt;stroke-linejoin:miter;stroke-opacity:1"
         xml:space="preserve"><tspan
           y="620.74976"
           x="1263.8763"
           id="tspan4321-8"
           sodipodi:role="line">Presentation Name|</tspan></text>
      <g
         transform="translate(268.70057,0)"
         id="drop_target">
        <rect
           style="opacity:1;fill:none;fill-opacity:1;stroke:#9dd513;stroke-width:8;stroke-linejoin:round;stroke-miterlimit:4;stroke-dasharray:16, 8;stroke-dashoffset:0;stroke-opacity:1"
           id="rect4405"
           width="656.59906"
           height="305.06601"
           x="1001.7004"
           y="672.5448"
           rx="42.426407"
           ry="46.467018" />
        <g
           id="g4453"
           transform="translate(-0.03941154,18)">
          <text
             sodipodi:linespacing="125%"
             id="text4443"
             y="815.79077"
             x="1082.5714"
             style="font-style:normal;font-variant:normal;font-weight:normal;font-stretch:normal;font-size:40px;line-height:125%;font-family:Ubuntu;-inkscape-font-specification:Ubuntu;letter-spacing:0px;word-spacing:0px;fill:#233d5e;fill-opacity:1;stroke:none;stroke-width:1px;stroke-linecap:butt;stroke-linejoin:miter;stroke-opacity:1"
             xml:space="preserve"><tspan
               y="815.79077"
               x="1082.5714"
               id="tspan4445"
               sodipodi:role="line">Drag presentation file here</tspan></text>
          <circle
             r="17.142857"
             cy="803.64789"
             cx="1056.8572"
             id="path4451"
             style="opacity:1;fill:#233d5e;fill-opacity:1;stroke:none;stroke-width:8;stroke-linejoin:round;stroke-miterlimit:4;stroke-dasharray:16, 8;stroke-dashoffset:0;stroke-opacity:1" />
          <text
             xml:space="preserve"
             style="font-style:normal;font-variant:normal;font-weight:normal;font-stretch:normal;font-size:40px;line-height:125%;font-family:Ubuntu;-inkscape-font-specification:Ubuntu;letter-spacing:0px;word-spacing:0px;fill:#ffffff;fill-opacity:1;stroke:none;stroke-width:1px;stroke-linecap:butt;stroke-linejoin:miter;stroke-opacity:1"
             x="1045.7142"
             y="815.79077"
             id="text4447"
             sodipodi:linespacing="125%"><tspan
               sodipodi:role="line"
               id="tspan4449"
               x="1045.7142"
               y="815.79077">+</tspan></text>
        </g>
      </g>
    </g>
  </g>
</svg>
